HIERARCHY
ROOT Hips
{
	OFFSET 0.00 0.00 0.00
	CHANNELS 6 Xposition Yposition Zposition Xrotation Yrotation Zrotation
	JOINT RightUpLeg
	{
		OFFSET -4.47808 0.00000 0.00000
		CHANNELS 3 Xrotation Yrotation Zrotation
		JOINT RightLeg
		{
			OFFSET 0.00000 -16.40577 0.00000
			CHANNELS 3 Xrotation Yrotation Zrotation
			JOINT RightFoot
			{
				OFFSET 0.00000 -14.64414 0.00000
				CHANNELS 3 Xrotation Yrotation Zrotation
				JOINT RightToeBase
				{
					OFFSET 0.00000 -1.50274 5.60831
					CHANNELS 3 Xrotation Yrotation Zrotation
					End Site
					{
						OFFSET 0.00000 0.00000 2.95275
					}
				}
			}
		}
	}
	JOINT LeftUpLeg
	{
		OFFSET 4.47808 0.00000 0.00000
		CHANNELS 3 Xrotation Yrotation Zrotation
		JOINT LeftLeg
		{
			OFFSET 0.00000 -16.40577 0.00000
			CHANNELS 3 Xrotation Yrotation Zrotation
			JOINT LeftFoot
			{
				OFFSET 0.00000 -14.64414 0.00000
				CHANNELS 3 Xrotation Yrotation Zrotation
				JOINT LeftToeBase
				{
					OFFSET 0.00000 -1.50274 5.60831
					CHANNELS 3 Xrotation Yrotation Zrotation
					End Site
					{
						OFFSET 0.00000 0.00000 2.95275
					}
				}
			}
		}
	}
	JOINT Spine
	{
		OFFSET 0.00000 6.06821 0.00000
		CHANNELS 3 Xrotation Yrotation Zrotation
		JOINT RightShoulder
		{
			OFFSET 0.00000 10.01392 0.00000
			CHANNELS 3 Xrotation Yrotation Zrotation
			JOINT RightArm
			{
				OFFSET -7.19022 0.00000 0.00000
				CHANNELS 3 Xrotation Yrotation Zrotation
				JOINT RightForeArm
				{
					OFFSET -10.17747 0.00000 0.00000
					CHANNELS 3 Yrotation Zrotation Xrotation
					JOINT RightHand
					{
						OFFSET -8.39211 0.00000 0.00000
						CHANNELS 3 Xrotation Yrotation Zrotation
						End Site
						{
							OFFSET -3.93700 0.00000 0.00000
						}
						JOINT RightHandThumb1
						{
							OFFSET 0.00000 0.00000 0.00000
							CHANNELS 3 Xrotation Zrotation Yrotation
							End Site
							{
								OFFSET 0.00000 0.00000 3.93700
							}
						}
					}
				}
			}
		}
		JOINT LeftShoulder
		{
			OFFSET 0.00000 10.01392 0.00000
			CHANNELS 3 Xrotation Yrotation Zrotation
			JOINT LeftArm
			{
				OFFSET 7.19022 0.00000 0.00000
				CHANNELS 3 Xrotation Yrotation Zrotation
				JOINT LeftForeArm
				{
					OFFSET 10.17747 0.00000 0.00000
					CHANNELS 3 Yrotation Zrotation Xrotation
					JOINT LeftHand
					{
						OFFSET 8.39211 0.00000 0.00000
						CHANNELS 3 Xrotation Yrotation Zrotation
						End Site
						{
							OFFSET 3.93700 0.00000 0.00000
						}
						JOINT LeftHandThumb1
						{
							OFFSET 0.00000 0.00000 0.00000
							CHANNELS 3 Xrotation Zrotation Yrotation
							End Site
							{
								OFFSET 0.00000 0.00000 3.93700
							}
						}
					}
				}
			}
		}
		JOINT Head
		{
			OFFSET 0.00000 15.77748 0.00000
			CHANNELS 3 Xrotation Yrotation Zrotation
			End Site
			{
				OFFSET 0.00000 4.52755 0.00000
			}
		}
	}
}
MOTION
Frames: 13
Frame Time: 0.008333
 -1.1454 33.0045 -1.3713 9.4478 -2.9503 3.4000 -0.8816 -5.9532 -2.9965 -1.4068 0.0000 0.0000 -13.1276 -5.9444 -1.3494 7.6961 -0.0000 0.0000 -1.2298 2.3571 2.0691 0.7807 -0.0000 -0.0000 -11.4100 9.8004 -13.4809 13.2851 0.0000 -0.0000 -12.3855 -0.7251 -2.4595 2.5792 -23.3919 -27.3636 -34.2708 -2.9050 34.3375 14.5577 0.0000 10.1190 -0.9489 6.7708 7.9972 32.8623 0.0000 -24.3270 -6.7390 22.8699 31.9827 -29.4619 3.1851 -32.7551 -3.8997 0.0000 23.1080 0.1019 0.6506 -8.9028 33.1476 -0.0000 26.2537 -1.2815 2.5772 2.2264
 -1.1463 33.0051 -1.3762 9.4482 -2.9693 3.3987 -0.8930 -5.9149 -2.9946 -1.4035 -0.0000 0.0000 -13.1159 -5.9588 -1.3250 7.6771 0.0000 0.0000 -1.2345 2.3600 2.0736 0.7802 0.0000 0.0000 -11.3979 9.8081 -13.4802 13.2504 -0.0000 0.0000 -12.3761 -0.6864 -2.4780 2.5883 -23.3961 -27.3158 -34.2571 -2.9035 34.3218 14.5591 0.0000 10.0995 -0.9612 6.8168 8.0458 32.8623 0.0000 -24.3270 -6.7380 22.8795 32.0162 -29.5221 3.2144 -32.7829 -3.8839 0.0000 23.1498 0.1115 0.7102 -8.9198 33.1476 -0.0000 26.2537 -1.2914 2.4845 2.1922
 -1.1456 33.0052 -1.3820 9.4511 -2.9842 3.3981 -0.9170 -5.9068 -2.9949 -1.3832 0.0000 -0.0000 -13.1229 -5.9589 -1.3143 7.7024 -0.0000 0.0000 -1.2488 2.3657 2.0758 0.7901 0.0000 0.0000 -11.4071 9.8094 -13.4722 13.2467 -0.0000 0.0000 -12.3714 -0.6749 -2.4659 2.5778 -23.3968 -27.3413 -34.2599 -2.9152 34.3620 14.5701 0.0000 10.1029 -0.9581 6.7785 8.0645 32.8623 0.0000 -24.3270 -6.7594 22.8542 32.0073 -29.5009 3.2421 -32.7587 -3.8592 0.0000 23.1472 0.1116 0.7114 -8.9147 33.1476 -0.0000 26.2537 -1.3188 2.6074 2.1867
 -1.1460 33.0055 -1.3875 9.4565 -3.0035 3.3927 -0.9351 -5.8797 -2.9892 -1.3761 -0.0000 0.0000 -13.1252 -5.9552 -1.3174 7.7507 -0.0000 0.0000 -1.2608 2.3682 2.0820 0.7949 -0.0000 0.0000 -11.4160 9.8370 -13.4780 13.3096 0.0000 0.0000 -12.3693 -0.6670 -2.4569 2.5687 -23.3809 -27.3485 -34.2538 -2.9222 34.3835 14.5766 0.0000 10.1116 -0.9608 6.7863 8.0780 32.8623 0.0000 -24.3270 -6.7427 22.8728 32.0033 -29.5025 3.2514 -32.7511 -3.8402 0.0000 23.1278 0.1075 0.6839 -8.9292 33.1476 -0.0000 26.2537 -1.3380 2.6600 2.1608
 -1.1454 33.0059 -1.3933 9.4584 -3.0271 3.3947 -0.9602 -5.8481 -2.9933 -1.3532 0.0000 0.0000 -13.1252 -5.9783 -1.2998 7.8648 0.0000 -0.0000 -1.2743 2.3810 2.0801 0.8070 -0.0000 -0.0000 -11.4146 9.8451 -13.4693 13.2705 -0.0000 0.0000 -12.3581 -0.6506 -2.4557 2.5532 -23.3730 -27.3511 -34.2335 -2.9039 34.4030 14.5741 0.0000 10.1021 -0.9607 6.7775 8.0872 32.8623 0.0000 -24.3270 -6.7811 22.8580 32.0173 -29.4757 3.2767 -32.7381 -3.8261 0.0000 23.1307 0.1071 0.6805 -8.9473 33.1476 -0.0000 26.2537 -1.3574 2.6860 2.1419
 -1.1458 33.0062 -1.3988 9.4564 -3.0464 3.3949 -0.9729 -5.8335 -2.9921 -1.3489 0.0000 -0.0000 -13.1261 -5.9551 -1.3091 7.7709 0.0000 0.0000 -1.2856 2.3907 2.0819 0.8263 0.0000 -0.0000 -11.4265 9.8553 -13.4808 13.2823 0.0000 -0.0000 -12.3435 -0.6285 -2.4571 2.5425 -23.3664 -27.3440 -34.2159 -2.8960 34.4114 14.5792 0.0000 10.1001 -0.9622 6.7707 8.1078 32.8623 0.0000 -24.3270 -6.7826 22.8586 32.0256 -29.4818 3.2948 -32.7339 -3.8225 0.0000 23.1278 0.1100 0.6968 -8.9721 33.1476 -0.0000 26.2537 -1.3840 2.6877 2.1310
 -1.1454 33.0065 -1.4046 9.4579 -3.0691 3.3942 -0.9932 -5.8254 -2.9932 -1.3342 0.0000 0.0000 -13.1259 -5.9357 -1.3077 7.7596 -0.0000 0.0000 -1.2955 2.3920 2.0845 0.8331 0.0000 -0.0000 -11.4295 9.8647 -13.4616 13.2531 -0.0000 0.0000 -12.3338 -0.6099 -2.4503 2.5614 -23.3735 -27.3424 -34.2530 -2.9004 34.4335 14.5754 0.0000 10.1283 -0.9668 6.7670 8.1505 32.8623 0.0000 -24.3270 -6.7897 22.8558 32.0312 -29.4873 3.3141 -32.7270 -3.7996 0.0000 23.1595 0.1132 0.7170 -8.9689 33.1476 -0.0000 26.2537 -1.3983 2.6975 2.0987
 -1.1447 33.0070 -1.4099 9.4572 -3.0825 3.3994 -1.0073 -5.8163 -2.9980 -1.3288 -0.0000 -0.0000 -13.1174 -5.9314 -1.3065 7.6991 -0.0000 0.0000 -1.3059 2.3974 2.0781 0.8402 0.0000 0.0000 -11.4231 9.8777 -13.4635 13.2477 -0.0000 -0.0000 -12.3184 -0.6068 -2.4668 2.5616 -23.3515 -27.3200 -34.2444 -2.9022 34.4334 14.5842 0.0000 10.1770 -0.9657 6.7923 8.1113 32.8623 0.0000 -24.3270 -6.8189 22.8671 32.0727 -29.4598 3.3270 -32.7411 -3.8073 0.0000 23.1573 0.1186 0.7502 -8.9827 33.1476 -0.0000 26.2537 -1.4151 2.5958 2.0685
 -1.1438 33.0069 -1.4157 9.4544 -3.1068 3.4052 -1.0217 -5.8106 -3.0061 -1.3196 0.0000 0.0000 -13.1252 -5.9074 -1.3150 7.6893 0.0000 0.0000 -1.3105 2.3891 2.0713 0.8498 -0.0000 -0.0000 -11.4303 9.9015 -13.4612 13.2911 0.0000 -0.0000 -12.3018 -0.5945 -2.4623 2.5414 -23.3345 -27.3471 -34.2355 -2.9041 34.4676 14.5806 0.0000 10.1853 -0.9667 6.7904 8.1219 32.8623 0.0000 -24.3270 -6.7951 22.8966 32.0586 -29.5015 3.3339 -32.7231 -3.7892 0.0000 23.1708 0.1228 0.7751 -9.0030 33.1476 -0.0000 26.2537 -1.4553 2.7139 2.0564
 -1.1440 33.0070 -1.4216 9.4469 -3.1235 3.4100 -1.0296 -5.7914 -3.0093 -1.3144 -0.0000 -0.0000 -13.1221 -5.9149 -1.3040 7.7500 0.0000 -0.0000 -1.3178 2.3911 2.0687 0.8672 0.0000 -0.0000 -11.4375 9.9154 -13.4558 13.2730 -0.0000 -0.0000 -12.2754 -0.5724 -2.4787 2.5464 -23.3310 -27.3229 -34.2282 -2.8917 34.4671 14.5770 0.0000 10.1831 -0.9681 6.7951 8.1283 32.8623 0.0000 -24.3270 -6.8090 22.8982 32.0906 -29.5106 3.3424 -32.7269 -3.7760 0.0000 23.1828 0.1191 0.7515 -9.0091 33.1476 -0.0000 26.2537 -1.4782 2.6108 2.0298
 -1.1422 33.0076 -1.4288 9.4443 -3.1495 3.4133 -1.0532 -5.7861 -3.0168 -1.2950 0.0000 0.0000 -13.1249 -5.8894 -1.3210 7.7497 0.0000 -0.0000 -1.3273 2.4254 2.0641 0.8756 -0.0000 -0.0000 -11.4387 9.9010 -13.4440 13.2594 -0.0000 0.0000 -12.2511 -0.5477 -2.4753 2.5542 -23.3321 -27.3145 -34.2437 -2.8799 34.4736 14.5691 0.0000 10.2033 -0.9696 6.7962 8.1394 32.8623 0.0000 -24.3270 -6.8186 22.8994 32.0979 -29.5149 3.3491 -32.7189 -3.7589 0.0000 23.1728 0.1175 0.7404 -9.0153 33.1476 -0.0000 26.2537 -1.5089 2.5956 1.9934
 -1.1412 33.0081 -1.4356 9.4383 -3.1744 3.4176 -1.0697 -5.7742 -3.0215 -1.2815 0.0000 0.0000 -13.1176 -5.8856 -1.3101 7.7290 -0.0000 -0.0000 -1.3344 2.4417 2.0587 0.8896 -0.0000 -0.0000 -11.4413 9.9117 -13.4400 13.3175 0.0000 0.0000 -12.2246 -0.5353 -2.4733 2.5599 -23.3267 -27.3150 -34.2647 -2.8723 34.4914 14.5632 0.0000 10.2122 -0.9644 6.7878 8.1060 32.8623 0.0000 -24.3270 -6.8273 22.9189 32.1052 -29.5076 3.3406 -32.7094 -3.7559 0.0000 23.1646 0.1183 0.7441 -9.0367 33.1476 -0.0000 26.2537 -1.5398 2.6079 1.9664
 -1.1409 33.0083 -1.4422 9.4318 -3.1880 3.4162 -1.0862 -5.7881 -3.0199 -1.2622 -0.0000 0.0000 -13.1169 -5.8552 -1.3044 7.6844 -0.0000 -0.0000 -1.3480 2.4548 2.0612 0.9125 -0.0000 -0.0000 -11.4416 9.9057 -13.4494 13.2488 -0.0000 0.0000 -12.1998 -0.5163 -2.4701 2.5548 -23.3310 -27.3191 -34.2573 -2.8504 34.5054 14.5501 0.0000 10.2042 -0.9638 6.7928 8.0949 32.8623 0.0000 -24.3270 -6.8213 22.9231 32.1071 -29.5431 3.3440 -32.6973 -3.7442 0.0000 23.1625 0.1207 0.7583 -9.0462 33.1476 -0.0000 26.2537 -1.5619 2.5888 1.9360
